<?xml version="1.0" standalone="no"?>
<!DOCTYPE svg PUBLIC "-//W3C//DTD SVG 20010904//EN"
 "http://www.w3.org/TR/2001/REC-SVG-20010904/DTD/svg10.dtd">
<svg version="1.0" xmlns="http://www.w3.org/2000/svg"
 width="512.000000pt" height="512.000000pt" viewBox="0 0 512.000000 512.000000"
 preserveAspectRatio="xMidYMid meet">
<metadata>
Created by potrace 1.14, written by Peter Selinger 2001-2017
</metadata>
<g transform="translate(0.000000,512.000000) scale(0.100000,-0.100000)"
fill="#000000" stroke="none">
<path d="M2546 4781 c-3 -4 -31 -11 -63 -15 -65 -8 -98 -14 -98 -16 0 -2 -22
-7 -60 -15 -16 -3 -47 -12 -68 -20 -20 -8 -47 -15 -59 -15 -11 0 -26 -7 -32
-15 -6 -8 -23 -16 -38 -17 -16 -1 -28 -8 -28 -14 0 -7 -11 -11 -25 -10 -13 2
-22 -1 -19 -5 3 -5 -2 -9 -10 -9 -9 0 -16 -3 -16 -7 0 -12 -52 -33 -63 -26 -6
3 -7 1 -3 -6 4 -6 0 -14 -11 -18 -50 -18 -153 -97 -246 -188 -34 -33 -65 -59
-70 -57 -5 1 -5 -2 -2 -8 4 -6 -5 -22 -19 -35 -14 -13 -26 -31 -26 -40 0 -8
-4 -14 -9 -12 -12 3 -46 -36 -99 -118 -25 -38 -48 -72 -51 -75 -3 -3 -17 -27
-30 -55 -14 -27 -29 -53 -34 -56 -5 -3 -9 -10 -8 -15 0 -5 -15 -40 -33 -79
-18 -38 -41 -92 -51 -120 -11 -27 -24 -53 -29 -57 -6 -4 -8 -8 -4 -8 4 0 2
-15 -3 -32 -6 -18 -12 -40 -14 -48 -17 -70 -44 -135 -54 -132 -7 1 -9 -2 -6
-8 8 -13 -14 -70 -27 -70 -5 0 -6 -4 -3 -10 3 -5 -3 -30 -15 -54 -11 -25 -20
-50 -20 -55 0 -6 -4 -11 -10 -11 -5 0 -10 -5 -10 -11 0 -21 -64 -138 -72 -133
-4 3 -5 -1 -2 -9 3 -8 -2 -22 -11 -30 -9 -9 -15 -19 -15 -22 1 -5 -17 -43
-103 -222 -16 -35 -34 -60 -40 -56 -5 3 -7 1 -3 -5 6 -10 -2 -35 -27 -89 -8
-19 -13 -21 -26 -11 -13 10 -14 10 -3 -2 13 -15 17 -54 4 -46 -8 5 -10 -13
-12 -87 -1 -18 -5 -25 -13 -20 -8 5 -8 2 0 -9 7 -8 11 -17 8 -19 -2 -3 0 -22
6 -44 5 -22 11 -47 14 -56 5 -25 44 -95 45 -84 1 6 1 35 0 66 -1 55 23 139 41
139 5 0 9 6 9 14 0 8 7 17 16 20 9 4 14 9 11 13 -8 7 10 43 21 43 5 0 8 -21 8
-47 -1 -27 4 -59 11 -73 16 -32 16 -50 1 -50 -7 0 -5 -5 5 -11 10 -6 14 -15
10 -22 -4 -7 -8 -64 -9 -127 -1 -133 11 -169 73 -216 21 -16 41 -30 46 -30 4
-1 11 -2 16 -3 9 -1 20 -18 53 -81 13 -25 57 -69 69 -70 4 0 9 35 11 78 4 54
13 95 32 136 14 33 28 57 30 55 2 -2 7 -31 10 -64 5 -46 18 -124 25 -153 0 -1
8 -16 17 -33 l16 -32 17 39 c23 51 66 101 102 120 29 14 29 14 25 -8 -2 -13
-9 -35 -15 -50 -7 -18 -7 -28 -1 -28 6 0 10 4 10 9 0 7 43 27 80 36 3 1 12 5
20 8 31 12 116 36 145 41 17 2 37 5 45 7 8 2 15 -3 15 -11 0 -8 -6 -14 -13
-12 -6 1 -11 -1 -10 -6 4 -10 -32 -47 -59 -61 -42 -22 -23 -29 75 -28 53 0
116 -5 139 -11 32 -9 49 -9 70 0 15 6 44 13 63 15 19 3 49 11 65 18 75 35 149
45 240 31 28 -3 56 -7 63 -8 6 -1 12 -4 13 -7 0 -3 2 -15 4 -25 2 -11 1 -25
-3 -30 -4 -6 -7 -15 -7 -21 0 -5 -10 -10 -23 -9 -12 0 -22 -2 -22 -6 0 -3 -22
-12 -50 -19 -27 -7 -50 -17 -50 -22 0 -5 -3 -8 -7 -7 -9 1 -30 -6 -80 -28 -17
-8 -35 -14 -40 -14 -15 0 -53 -45 -53 -63 0 -18 -55 -51 -70 -42 -6 3 -10 2
-10 -3 0 -5 -14 -15 -31 -22 -50 -21 -96 -76 -105 -126 -5 -28 -22 -47 -34
-39 -3 2 -6 -5 -7 -15 -2 -18 -59 -101 -75 -108 -5 -2 -8 -10 -8 -17 0 -7 -7
-16 -15 -19 -9 -3 -23 -22 -31 -41 -8 -20 -18 -34 -22 -31 -4 2 -9 -5 -9 -17
-1 -11 -9 -25 -18 -29 -8 -5 -13 -13 -10 -19 4 -5 2 -9 -2 -9 -5 0 -17 -17
-28 -37 -11 -21 -27 -45 -35 -53 -8 -8 -16 -22 -18 -30 -2 -8 -10 -20 -17 -26
-8 -6 -12 -14 -8 -17 3 -4 -2 -9 -11 -13 -9 -3 -14 -10 -11 -14 3 -5 -5 -16
-17 -24 -13 -9 -17 -16 -9 -16 11 0 10 -4 -2 -18 -10 -10 -17 -24 -17 -31 0
-7 -5 -9 -12 -5 -7 4 -10 4 -6 0 4 -5 -2 -25 -14 -47 -11 -21 -22 -57 -25 -79
-3 -22 -8 -40 -12 -40 -3 0 -6 -37 -6 -83 0 -45 -4 -85 -10 -89 -6 -5 -6 -8 1
-8 7 0 10 -13 8 -30 -3 -22 2 -35 17 -48 12 -9 27 -23 35 -30 7 -7 33 -15 58
-18 25 -4 46 -11 46 -16 0 -5 6 -8 13 -7 6 2 30 -3 51 -9 22 -6 44 -8 49 -5 6
3 7 1 4 -4 -6 -9 92 -30 115 -25 7 2 -24 -84 -61 -171 -12 -27 -21 -57 -21
-67 0 -10 -4 -20 -10 -22 -6 -2 -4 -13 3 -28 l13 -25 827 -3 c731 -2 827 0
828 13 1 8 2 21 3 28 1 6 -4 32 -11 57 -19 65 -23 89 -14 95 5 2 37 7 72 10
84 6 124 18 165 50 19 14 49 31 67 37 37 14 57 31 62 55 2 10 15 49 30 88 26
69 28 136 4 151 -5 3 -9 19 -9 36 0 17 -11 51 -25 75 -14 23 -23 43 -19 43 3
0 1 7 -6 15 -6 8 -9 19 -5 25 3 5 1 10 -5 10 -6 0 -8 5 -5 10 3 6 2 10 -3 10
-5 0 -12 10 -15 23 -9 37 -59 152 -68 155 -5 2 -9 10 -9 17 0 43 -201 391
-232 401 -23 7 -49 45 -51 75 -2 28 -82 109 -108 109 -11 0 -19 5 -19 10 0 6
-6 10 -14 10 -36 0 -100 51 -122 96 -11 22 -25 34 -47 39 -36 9 -46 12 -49 15
-2 1 -11 3 -20 5 -29 5 -78 29 -78 38 0 5 -4 6 -9 3 -14 -9 -71 24 -71 40 0 8
8 17 18 21 9 3 29 15 45 25 28 20 30 18 27 -19 -2 -30 7 -29 83 11 l65 34 -18
-44 c-29 -67 -12 -69 65 -10 21 17 42 31 45 30 3 0 21 6 39 14 19 7 43 15 53
17 10 2 23 7 29 10 5 4 32 9 58 12 68 6 74 8 89 16 6 5 16 6 21 2 5 -3 12 -1
16 5 3 5 14 10 24 10 34 0 146 64 194 111 26 26 47 45 47 42 0 -17 -71 -153
-80 -153 -6 0 -9 -4 -5 -9 3 -6 -3 -14 -12 -20 -30 -16 -10 -21 32 -7 65 21
105 40 105 49 0 4 4 6 9 2 16 -9 174 132 165 147 -3 5 0 8 5 8 6 0 11 7 11 15
0 8 4 15 10 15 5 0 17 8 27 19 10 10 41 31 68 46 70 38 164 108 165 121 0 7 7
15 15 18 9 3 27 31 41 61 23 50 25 64 20 143 -2 48 -7 99 -10 114 -4 14 -8 46
-10 70 -3 24 -7 54 -11 68 -3 14 -6 44 -7 68 -1 23 -4 42 -8 42 -3 0 -7 17 -9
38 -6 87 -11 141 -17 197 -3 33 -7 71 -8 85 0 14 -4 27 -8 30 -4 3 -8 23 -10
44 -1 20 -6 40 -11 43 -4 2 -2 12 5 21 10 12 10 14 1 8 -9 -5 -13 -1 -13 12 0
10 -9 45 -19 78 -11 32 -21 68 -23 79 -2 11 -7 23 -12 27 -5 3 -10 14 -11 25
-1 10 -5 25 -8 33 -4 8 -16 42 -27 75 -12 33 -28 72 -36 88 -8 15 -12 27 -7
27 4 0 3 4 -2 8 -14 10 -58 99 -58 117 0 8 -3 12 -7 10 -9 -6 -40 61 -36 77 1
7 1 10 -1 6 -8 -15 -23 -8 -23 10 0 9 -18 37 -40 60 -22 24 -40 50 -40 58 0 8
-8 18 -17 21 -20 8 -48 33 -37 33 4 0 -5 11 -20 25 -15 14 -25 25 -22 25 3 0
-10 15 -29 33 -19 19 -32 37 -28 40 3 4 -1 7 -10 7 -9 0 -23 11 -32 23 -8 13
-40 41 -70 62 -30 20 -52 42 -48 48 3 5 2 7 -4 4 -11 -7 -65 27 -58 36 3 4 2
5 -1 2 -12 -8 -104 47 -97 59 3 6 0 6 -7 -1 -11 -10 -17 -8 -31 8 -10 12 -23
18 -28 14 -6 -3 -11 1 -11 9 0 9 -6 13 -14 10 -7 -3 -20 2 -29 10 -9 9 -23 16
-31 16 -9 0 -16 5 -16 11 0 5 -4 8 -9 5 -4 -3 -26 1 -47 9 -49 17 -67 22 -78
23 -5 0 -13 6 -17 14 -7 10 -9 10 -9 0 0 -10 -5 -10 -20 -2 -11 6 -20 7 -20 3
0 -4 -5 -1 -11 7 -8 11 -12 12 -16 2 -2 -6 -10 -9 -16 -5 -10 6 -27 8 -85 12
-8 1 -10 6 -6 14 5 7 1 7 -10 -2 -15 -13 -19 -13 -27 0 -5 8 -9 9 -9 2 0 -10
-58 -8 -68 2 -2 2 -17 -1 -33 -5 -17 -5 -29 -5 -29 0 0 6 -10 6 -25 0 -17 -7
-25 -6 -25 1 0 7 -6 6 -17 -2 -11 -10 -14 -10 -9 -1 4 6 5 12 2 12 -3 0 -7 -4
-10 -9z m1608 -1946 c3 -16 10 -44 14 -60 21 -71 -3 -220 -46 -290 -28 -45
-82 -110 -82 -98 0 4 -6 -2 -14 -13 -17 -22 -16 -5 2 39 7 16 12 34 12 42 0 7
4 15 9 17 20 7 93 364 82 403 -2 7 1 7 8 0 5 -5 12 -23 15 -40z m-3110 -635
c3 -36 10 -82 15 -102 5 -24 5 -38 -1 -38 -17 0 -35 64 -32 115 1 28 3 61 3
74 2 43 9 18 15 -49z m946 -275 c-7 -8 -20 -15 -29 -15 -11 1 -8 5 9 15 32 18
35 18 20 0z"/>
</g>
</svg>
